<svg xmlns="http://www.w3.org/2000/svg" width="315.7470703125" height="150.64178466796875" viewBox="-33.7353515625 -85.37109375 315.7470703125 150.64178466796875">
<style>.letter-0 {
  fill: none; stroke: #1d1613; stroke-width: 2;
  stroke-linecap: round; stroke-linejoin: round;
  stroke-dasharray: 304.64; stroke-dashoffset: 304.64;
  animation: write0 1.8s ease-in-out forwards;
  animation-delay: 0.000s;
}
@keyframes write0 {
  to { stroke-dashoffset: 0; }
}
.letter-1 {
  fill: none; stroke: #1d1613; stroke-width: 2;
  stroke-linecap: round; stroke-linejoin: round;
  stroke-dasharray: 190.48; stroke-dashoffset: 190.48;
  animation: write1 1.8s ease-in-out forwards;
  animation-delay: 0.270s;
}
@keyframes write1 {
  to { stroke-dashoffset: 0; }
}
.letter-2 {
  fill: none; stroke: #1d1613; stroke-width: 2;
  stroke-linecap: round; stroke-linejoin: round;
  stroke-dasharray: 202.78; stroke-dashoffset: 202.78;
  animation: write2 1.8s ease-in-out forwards;
  animation-delay: 0.540s;
}
@keyframes write2 {
  to { stroke-dashoffset: 0; }
}
.letter-3 {
  fill: none; stroke: #1d1613; stroke-width: 2;
  stroke-linecap: round; stroke-linejoin: round;
  stroke-dasharray: 221.8; stroke-dashoffset: 221.8;
  animation: write3 1.8s ease-in-out forwards;
  animation-delay: 0.810s;
}
@keyframes write3 {
  to { stroke-dashoffset: 0; }
}
.letter-4 {
  fill: none; stroke: #1d1613; stroke-width: 2;
  stroke-linecap: round; stroke-linejoin: round;
  stroke-dasharray: 320.15; stroke-dashoffset: 320.15;
  animation: write4 1.8s ease-in-out forwards;
  animation-delay: 1.080s;
}
@keyframes write4 {
  to { stroke-dashoffset: 0; }
}
.letter-5 {
  fill: none; stroke: #1d1613; stroke-width: 2;
  stroke-linecap: round; stroke-linejoin: round;
  stroke-dasharray: 190.48; stroke-dashoffset: 190.48;
  animation: write5 1.8s ease-in-out forwards;
  animation-delay: 1.350s;
}
@keyframes write5 {
  to { stroke-dashoffset: 0; }
}
.letter-6 {
  fill: none; stroke: #1d1613; stroke-width: 2;
  stroke-linecap: round; stroke-linejoin: round;
  stroke-dasharray: 117.92; stroke-dashoffset: 117.92;
  animation: write6 1.8s ease-in-out forwards;
  animation-delay: 1.620s;
}
@keyframes write6 {
  to { stroke-dashoffset: 0; }
}
.letter-7 {
  fill: none; stroke: #1d1613; stroke-width: 2;
  stroke-linecap: round; stroke-linejoin: round;
  stroke-dasharray: 142.02; stroke-dashoffset: 142.02;
  animation: write7 1.8s ease-in-out forwards;
  animation-delay: 1.890s;
}
@keyframes write7 {
  to { stroke-dashoffset: 0; }
}
.letter-8 {
  fill: none; stroke: #1d1613; stroke-width: 2;
  stroke-linecap: round; stroke-linejoin: round;
  stroke-dasharray: 190.47; stroke-dashoffset: 190.47;
  animation: write8 1.8s ease-in-out forwards;
  animation-delay: 2.160s;
}
@keyframes write8 {
  to { stroke-dashoffset: 0; }
}
</style>
<g><path d="M-3.74 10.47L-3.74 10.47Q-3.44 10.25-2.82 9.74Q-2.20 9.23-1.35 7.84Q-0.51 6.45 0.51 3.81Q1.54 1.17 2.64-3.37L2.64-3.37Q3.22-5.79 4.17-9.52Q5.13-13.26 6.26-17.50Q7.40-21.75 8.57-26.26Q9.74-30.76 10.84-34.83Q11.94-38.89 12.82-42.19Q13.70-45.48 14.21-47.31L14.21-47.31Q12.82-46.44 11.50-45.34L11.50-45.34Q10.33-44.38 9.01-43.18Q7.69-41.97 6.45-40.65L6.45-40.65Q5.49-41.46 4.98-42.41L4.98-42.41Q4.69-42.85 4.47-43.36L4.47-43.36Q4.03-44.46 4.03-45.63Q4.03-46.80 5.86-48.05L5.86-48.05Q6.81-48.71 8.75-49.95Q10.69-51.20 13.55-52.40Q16.41-53.61 20.21-54.49Q24.02-55.37 28.64-55.37L28.64-55.37Q33.25-55.37 36.07-53.54Q38.89-51.71 40.39-49.07Q41.89-46.44 42.33-43.51Q42.77-40.58 42.55-38.38L42.55-38.38Q42.11-34.28 39.92-29.81Q37.72-25.34 33.84-21.57Q29.96-17.80 24.39-15.16Q18.82-12.52 11.65-12.16L11.65-12.16Q11.06-9.38 10.47-6.45Q9.89-3.52 9.23-0.70Q8.57 2.12 7.87 4.58Q7.18 7.03 6.45 8.79L6.45 8.79Q5.71 10.69 4.54 11.83Q3.37 12.96 0.81 12.96L0.81 12.96Q-0.51 12.96-1.65 12.30Q-2.78 11.65-3.74 10.47ZM13.62-22.92L13.62-22.92Q13.40-21.75 13.07-19.89Q12.74-18.02 12.30-15.67L12.30-15.67Q14.28-15.97 16.70-16.74Q19.12-17.50 21.53-18.82Q23.95-20.14 26.26-22.01Q28.56-23.88 30.47-26.33Q32.37-28.78 33.65-31.90Q34.94-35.01 35.30-38.82L35.30-38.82Q35.67-42.48 34.90-44.93Q34.13-47.39 32.67-48.89Q31.20-50.39 29.30-51.01Q27.39-51.64 25.49-51.64L25.49-51.64Q23.66-51.64 21.90-51.12Q20.14-50.61 18.38-49.80L18.38-49.80Q18.60-49.73 18.90-49.44L18.90-49.44Q19.34-49.00 19.56-48.19L19.56-48.19Q17.80-41.09 16.66-36.33Q15.53-31.57 14.87-28.56L14.87-28.56Q14.06-25.05 13.62-22.92Z" class="letter-0"/></g>
<g><path d="M63.13-11.65L63.13-11.65Q62.40-8.86 61.16-6.45Q59.91-4.03 58.19-2.27Q56.47-0.51 54.31 0.48Q52.15 1.46 49.58 1.46L49.58 1.46Q46.58 1.46 44.86 0.18Q43.14-1.10 42.30-3.00Q41.46-4.91 41.27-7.18Q41.09-9.45 41.09-11.43L41.09-11.43Q41.09-12.82 41.42-14.50Q41.75-16.19 42.33-17.94Q42.92-19.70 43.84-21.46Q44.75-23.22 46.00-24.68L46.00-24.68Q46.44-25.93 47.35-26.88Q48.27-27.83 49.48-28.45Q50.68-29.08 52.08-29.41Q53.47-29.74 54.79-29.74L54.79-29.74Q55.00-29.74 55.19-29.66Q55.37-29.59 55.59-29.52L55.59-29.52Q56.54-29.44 57.97-28.78Q59.40-28.13 60.75-26.81Q62.11-25.49 63.06-23.47Q64.01-21.46 64.01-18.60L64.01-18.60Q64.01-18.02 63.94-17.18Q63.87-16.33 63.79-15.75L63.79-15.75Q65.48-16.41 67.31-17.36Q69.14-18.31 70.86-19.37Q72.58-20.43 74.05-21.53Q75.51-22.63 76.39-23.51L76.39-23.51Q77.12-24.17 77.64-24.24Q78.15-24.32 78.37-23.95Q78.59-23.58 78.44-22.92Q78.30-22.27 77.64-21.46L77.64-21.46Q77.27-21.02 75.77-19.70Q74.27-18.38 72.22-16.85Q70.17-15.31 67.75-13.84Q65.33-12.38 63.13-11.65ZM50.76-22.78L50.76-22.78Q50.54-22.12 50.54-21.39L50.54-21.39Q50.54-20.21 50.68-18.93Q50.83-17.65 51.42-16.63Q52.00-15.60 53.28-14.90Q54.57-14.21 56.84-14.21L56.84-14.21Q57.20-14.21 57.57-14.25Q57.93-14.28 58.30-14.36L58.30-14.36Q58.52-15.31 58.70-16.08Q58.89-16.85 58.89-17.43L58.89-17.43Q59.03-18.82 58.89-20.29Q58.74-21.75 58.34-22.96Q57.93-24.17 57.31-24.94Q56.69-25.71 55.81-25.71L55.81-25.71Q54.42-25.71 53.14-24.94Q51.86-24.17 50.76-22.78ZM46.07-9.89L46.07-9.89Q46.07-8.57 46.22-7.29Q46.36-6.01 46.80-5.02Q47.24-4.03 47.97-3.41Q48.71-2.78 49.88-2.78L49.88-2.78Q51.20-2.78 52.29-3.41Q53.39-4.03 54.27-5.02Q55.15-6.01 55.85-7.29Q56.54-8.57 57.06-9.96L57.06-9.96Q56.54-9.89 56.07-9.85Q55.59-9.81 55.00-9.81L55.00-9.81Q52.22-9.81 50.21-11.46Q48.19-13.11 47.09-15.67L47.09-15.67Q46.66-14.14 46.36-12.67Q46.07-11.21 46.07-9.89Z" class="letter-1"/></g>
<g><path d="M68.19-0.37L68.19-0.37Q67.68 0.44 67.05 0.70Q66.43 0.95 65.95 0.77Q65.48 0.59 65.33 0Q65.19-0.59 65.63-1.46L65.63-1.46Q65.84-1.90 66.61-3.44Q67.38-4.98 68.44-7.14Q69.51-9.30 70.75-11.83Q72.00-14.36 73.13-16.63Q74.27-18.90 75.22-20.69Q76.17-22.49 76.61-23.29L76.61-23.29Q75.81-24.02 75.51-24.35Q75.22-24.68 75.07-25.78L75.07-25.78Q74.93-26.73 75.51-28.27Q76.10-29.81 77.05-31.24Q78.00-32.67 79.17-33.69Q80.35-34.72 81.45-34.72L81.45-34.72Q83.50-34.72 84.34-33.40Q85.18-32.08 85.33-30.69L85.33-30.69Q85.47-29.74 85.18-28.27Q84.89-26.81 84.08-25.63L84.08-25.63Q84.30-25.49 84.67-25.31Q85.03-25.12 85.84-25.12L85.84-25.12Q87.01-25.12 87.49-25.27Q87.96-25.42 88.99-25.42L88.99-25.42Q90.23-25.42 91.04-24.79Q91.85-24.17 92.36-23.25Q92.87-22.34 93.13-21.28Q93.38-20.21 93.46-19.34L93.46-19.34Q93.68-17.50 92.50-15.53Q91.33-13.55 89.65-11.21L89.65-11.21Q88.62-9.74 87.60-7.91Q86.57-6.08 86.72-4.61L86.72-4.61Q86.87-3.66 87.23-3.08Q87.60-2.49 89.28-2.49L89.28-2.49Q90.53-2.49 92.03-3.41Q93.53-4.32 95.10-5.75Q96.68-7.18 98.22-8.90Q99.76-10.62 101.07-12.27Q102.39-13.92 103.31-15.23Q104.22-16.55 104.66-17.14L104.66-17.14Q105.03-17.72 105.62-17.94Q106.20-18.16 106.64-17.94Q107.08-17.72 107.19-17.07Q107.30-16.41 106.64-15.31L106.64-15.31Q106.20-14.58 105.14-12.96Q104.08-11.35 102.58-9.38Q101.07-7.40 99.24-5.31Q97.41-3.22 95.40-1.50Q93.38 0.22 91.37 1.32Q89.36 2.42 87.52 2.42L87.52 2.42Q85.62 2.42 84.38 1.68Q83.13 0.95 82.36-0.11Q81.59-1.17 81.26-2.45Q80.93-3.74 81.01-4.83L81.01-4.83Q81.08-5.71 81.48-6.70Q81.88-7.69 82.43-8.75Q82.98-9.81 83.61-10.88Q84.23-11.94 84.74-12.96L84.74-12.96Q85.99-15.09 86.76-16.59Q87.52-18.09 87.52-19.12L87.52-19.12Q87.52-19.78 87.23-20.29Q86.94-20.80 86.28-20.80L86.28-20.80Q85.84-20.80 85.66-20.76Q85.47-20.73 85.29-20.73Q85.11-20.73 84.78-20.69Q84.45-20.65 83.79-20.65L83.79-20.65Q82.84-20.65 82.18-20.95Q81.52-21.24 80.93-21.39L80.93-21.39Q80.64-20.87 79.61-19.19Q78.59-17.50 77.23-15.23Q75.88-12.96 74.38-10.47Q72.88-7.98 71.56-5.82Q70.24-3.66 69.32-2.16Q68.41-0.66 68.19-0.37Z" class="letter-2"/></g>
<g><path d="M128.47-18.53L128.47-18.53Q128.76-18.97 129.24-19.08Q129.71-19.19 130.00-18.97Q130.30-18.75 130.33-18.24Q130.37-17.72 129.93-16.85L129.93-16.85Q128.47-14.06 126.09-10.84Q123.71-7.62 121.07-4.80Q118.43-1.98 115.94-0.15Q113.45 1.68 111.77 1.68L111.77 1.68Q109.35 1.68 107.74 0.73Q106.13-0.22 105.21-1.61Q104.30-3.00 103.93-4.65Q103.56-6.30 103.71-7.69L103.71-7.69Q103.78-8.86 104.22-11.90Q104.66-14.94 105.40-18.93Q106.13-22.92 107.04-27.50Q107.96-32.08 108.98-36.33L108.98-36.33Q107.74-36.18 106.49-36.04Q105.25-35.89 104.22-35.89L104.22-35.89Q101.88-35.89 99.79-36.44Q97.71-36.99 96.68-37.50L96.68-37.50Q96.09-37.79 96.17-38.34Q96.24-38.89 96.61-39.44Q96.97-39.99 97.52-40.39Q98.07-40.80 98.51-40.80L98.51-40.80Q99.90-40.65 101.51-40.54Q103.13-40.43 105.03-40.50L105.03-40.50Q106.42-40.58 107.70-40.72Q108.98-40.87 110.23-41.09L110.23-41.09Q111.18-44.60 112.10-47.20Q113.01-49.80 113.75-50.83L113.75-50.83Q113.96-51.20 114.73-51.45Q115.50-51.71 116.38-51.82Q117.26-51.93 118.07-51.82Q118.87-51.71 119.24-51.27L119.24-51.27Q119.60-50.68 119.53-48.27Q119.46-45.85 118.73-42.11L118.73-42.11Q121.80-42.11 124.18-41.78Q126.56-41.46 128.25-41.05Q129.93-40.65 130.96-40.25Q131.98-39.84 132.50-39.70L132.50-39.70Q133.01-39.55 133.04-38.96Q133.08-38.38 132.82-37.76Q132.57-37.13 131.98-36.69Q131.40-36.25 130.66-36.40L130.66-36.40Q129.93-36.47 129.02-36.69Q128.10-36.91 126.82-37.06Q125.54-37.21 123.78-37.35Q122.02-37.50 119.68-37.50L119.68-37.50Q119.24-37.50 118.69-37.46Q118.14-37.43 117.55-37.43L117.55-37.43Q117.26-36.25 117.00-35.12Q116.75-33.98 116.31-32.74L116.31-32.74Q115.36-29.81 114.11-26.37L114.11-26.37Q113.01-23.36 111.47-19.48Q109.94-15.60 108.03-11.21L108.03-11.21Q107.59-8.06 108.14-6.41Q108.69-4.76 109.50-4.03L109.50-4.03Q110.45-3.22 111.84-3.15L111.84-3.15Q112.94-3.00 114.51-3.92Q116.09-4.83 117.77-6.37Q119.46-7.91 121.18-9.74Q122.90-11.57 124.37-13.33Q125.83-15.09 126.93-16.52Q128.03-17.94 128.47-18.53Z" class="letter-3"/></g>
<g><path d="M125.54-7.62L125.54-7.62Q124.73-8.42 124.40-9.19Q124.07-9.96 123.93-10.69L123.93-10.69Q123.78-11.50 123.93-12.30L123.93-12.30Q124.22-13.33 124.80-14.21L124.80-14.21Q125.32-15.01 126.20-15.86Q127.08-16.70 128.54-17.43L128.54-17.43Q129.49-19.78 130.26-22.38Q131.03-24.98 131.62-27.10L131.62-27.10Q132.28-29.59 132.79-32.08L132.79-32.08Q134.62-38.31 134.69-42.22Q134.77-46.14 134.55-47.39L134.55-47.39Q134.47-47.90 134.40-48.41L134.40-48.41Q134.25-48.85 134.14-49.40Q134.03-49.95 133.89-50.46L133.89-50.46Q134.69-50.90 135.31-51.20Q135.94-51.49 136.38-51.64L136.38-51.64Q136.89-51.86 137.33-51.93L137.33-51.93Q139.01-52.29 140.52-52.33Q142.02-52.37 142.16-51.78L142.16-51.78Q142.24-51.42 142.35-50.46Q142.46-49.51 142.46-48.12Q142.46-46.73 142.24-45.01Q142.02-43.29 141.43-41.38L141.43-41.38Q140.92-39.70 140.04-36.69L140.04-36.69Q139.23-34.13 137.92-29.85Q136.60-25.56 134.47-18.90L134.47-18.90Q136.67-19.63 139.31-20.29Q141.94-20.95 144.69-21.39Q147.44-21.83 150.18-22.05Q152.93-22.27 155.27-22.12L155.27-22.12Q155.71-22.12 155.90-21.72Q156.08-21.31 155.90-20.87Q155.71-20.43 155.09-20.03Q154.47-19.63 153.30-19.56L153.30-19.56Q151.83-19.41 150.07-19.23Q148.32-19.04 146.45-18.71Q144.58-18.38 142.75-17.91Q140.92-17.43 139.31-16.77L139.31-16.77Q138.06-16.33 136.82-15.89L136.82-15.89Q135.79-15.53 134.66-15.05Q133.52-14.58 132.79-14.21L132.79-14.21L131.10-8.86Q135.35-5.86 137.66-2.71Q139.97 0.44 140.99 3.08L140.99 3.08Q142.24 6.15 142.38 9.08L142.38 9.08Q142.38 12.30 141.43 15.56Q140.48 18.82 138.90 21.79Q137.33 24.76 135.24 27.32Q133.15 29.88 130.85 31.71Q128.54 33.54 126.16 34.50Q123.78 35.45 121.66 35.23L121.66 35.23Q120.12 35.08 119.09 34.24Q118.07 33.40 117.55 32.12Q117.04 30.83 116.97 29.26Q116.89 27.69 117.26 26.15L117.26 26.15Q117.55 24.61 118.51 20.43L118.51 20.43Q119.31 16.92 121.00 10.22Q122.68 3.52 125.54-7.62ZM129.86-4.17L129.86-4.17Q128.83-0.51 128.06 2.56Q127.29 5.64 126.78 7.98L126.78 7.98Q126.12 10.69 125.76 12.89L125.76 12.89Q125.10 15.67 124.40 18.38Q123.71 21.09 123.30 23.25Q122.90 25.42 122.97 26.73Q123.05 28.05 123.93 28.05L123.93 28.05Q126.05 28.20 128.36 26.40Q130.66 24.61 132.57 21.86Q134.47 19.12 135.72 15.93Q136.96 12.74 136.96 10.03L136.96 10.03Q136.96 7.03 136.01 4.10L136.01 4.10Q135.35 2.56 134.47 1.10L134.47 1.10Q133.67-0.15 132.53-1.57Q131.40-3.00 129.86-4.17Z" class="letter-4"/></g>
<g><path d="M170.14-11.65L170.14-11.65Q169.41-8.86 168.16-6.45Q166.92-4.03 165.20-2.27Q163.48-0.51 161.32 0.48Q159.16 1.46 156.59 1.46L156.59 1.46Q153.59 1.46 151.87 0.18Q150.15-1.10 149.30-3.00Q148.46-4.91 148.28-7.18Q148.10-9.45 148.10-11.43L148.10-11.43Q148.10-12.82 148.43-14.50Q148.75-16.19 149.34-17.94Q149.93-19.70 150.84-21.46Q151.76-23.22 153.00-24.68L153.00-24.68Q153.44-25.93 154.36-26.88Q155.27-27.83 156.48-28.45Q157.69-29.08 159.08-29.41Q160.47-29.74 161.79-29.74L161.79-29.74Q162.01-29.74 162.19-29.66Q162.38-29.59 162.60-29.52L162.60-29.52Q163.55-29.44 164.98-28.78Q166.41-28.13 167.76-26.81Q169.12-25.49 170.07-23.47Q171.02-21.46 171.02-18.60L171.02-18.60Q171.02-18.02 170.95-17.18Q170.87-16.33 170.80-15.75L170.80-15.75Q172.49-16.41 174.32-17.36Q176.15-18.31 177.87-19.37Q179.59-20.43 181.05-21.53Q182.52-22.63 183.40-23.51L183.40-23.51Q184.13-24.17 184.64-24.24Q185.16-24.32 185.38-23.95Q185.60-23.58 185.45-22.92Q185.30-22.27 184.64-21.46L184.64-21.46Q184.28-21.02 182.78-19.70Q181.27-18.38 179.22-16.85Q177.17-15.31 174.76-13.84Q172.34-12.38 170.14-11.65ZM157.76-22.78L157.76-22.78Q157.54-22.12 157.54-21.39L157.54-21.39Q157.54-20.21 157.69-18.93Q157.84-17.65 158.42-16.63Q159.01-15.60 160.29-14.90Q161.57-14.21 163.84-14.21L163.84-14.21Q164.21-14.21 164.58-14.25Q164.94-14.28 165.31-14.36L165.31-14.36Q165.53-15.31 165.71-16.08Q165.89-16.85 165.89-17.43L165.89-17.43Q166.04-18.82 165.89-20.29Q165.75-21.75 165.34-22.96Q164.94-24.17 164.32-24.94Q163.70-25.71 162.82-25.71L162.82-25.71Q161.43-25.71 160.14-24.94Q158.86-24.17 157.76-22.78ZM153.08-9.89L153.08-9.89Q153.08-8.57 153.22-7.29Q153.37-6.01 153.81-5.02Q154.25-4.03 154.98-3.41Q155.71-2.78 156.88-2.78L156.88-2.78Q158.20-2.78 159.30-3.41Q160.40-4.03 161.28-5.02Q162.16-6.01 162.85-7.29Q163.55-8.57 164.06-9.96L164.06-9.96Q163.55-9.89 163.07-9.85Q162.60-9.81 162.01-9.81L162.01-9.81Q159.23-9.81 157.21-11.46Q155.20-13.11 154.10-15.67L154.10-15.67Q153.66-14.14 153.37-12.67Q153.08-11.21 153.08-9.89Z" class="letter-5"/></g>
<g><path d="M176.88-1.17L176.88-1.17Q180.10-14.72 182.04-22.92Q183.98-31.13 185.01-35.45L185.01-35.45Q186.18-40.58 186.62-42.55L186.62-42.55Q186.84-43.95 186.99-45.26L186.99-45.26Q187.13-46.44 187.13-47.68Q187.13-48.93 186.91-49.95L186.91-49.95Q187.50-50.32 188.20-50.54Q188.89-50.76 189.55-50.90L189.55-50.90Q190.36-51.12 191.16-51.27L191.16-51.27Q191.97-51.42 192.63-51.42L192.63-51.42Q193.21-51.42 193.73-51.31Q194.24-51.20 194.38-50.83L194.38-50.83Q194.82-50.46 194.79-49.37Q194.75-48.27 194.60-47.09L194.60-47.09Q194.31-45.70 193.95-44.09L193.95-44.09Q193.07-40.94 191.53-35.01L191.53-35.01Q190.21-29.96 187.98-21.24Q185.74-12.52 182.37 0.73L182.37 0.73Q182.01 1.10 181.49 1.25Q180.98 1.39 180.54 1.39L180.54 1.39Q180.03 1.39 179.44 1.32L179.44 1.32Q178.93 1.17 178.42 0.88L178.42 0.88Q177.98 0.59 177.54 0.11Q177.10-0.37 176.88-1.17Z" class="letter-6"/></g>
<g><path d="M210.50-43.14L210.50-43.14Q210.28-42.33 209.66-41.56Q209.03-40.80 208.26-40.32Q207.50-39.84 206.69-39.70Q205.88-39.55 205.37-39.99L205.37-39.99Q203.83-41.16 203.76-42.52Q203.69-43.87 204.42-45.08Q205.15-46.29 206.25-47.13Q207.35-47.97 208.15-48.12L208.15-48.12Q208.96-48.27 209.51-47.79Q210.06-47.31 210.35-46.55Q210.64-45.78 210.68-44.82Q210.72-43.87 210.50-43.14ZM200.39-27.54L200.39-27.54Q200.76-27.98 201.78-28.27Q202.81-28.56 203.91-28.75Q205.00-28.93 205.92-28.97Q206.84-29.00 206.98-28.93L206.98-28.93Q207.06-28.86 206.62-27.39Q206.18-25.93 205.52-23.95Q204.86-21.97 204.13-19.89Q203.39-17.80 203.03-16.48L203.03-16.48Q202.66-15.16 202.15-13.51Q201.64-11.87 201.23-10.29Q200.83-8.72 200.68-7.32Q200.54-5.93 200.90-5.20L200.90-5.20Q201.27-4.32 201.71-3.99Q202.15-3.66 202.66-3.66L202.66-3.66Q204.13-3.66 206.36-5.27Q208.59-6.88 210.90-9.12Q213.21-11.35 215.19-13.66Q217.16-15.97 218.12-17.36L218.12-17.36Q218.70-18.09 219.32-18.31Q219.95-18.53 220.35-18.24Q220.75-17.94 220.79-17.29Q220.83-16.63 220.31-15.75L220.31-15.75Q219.14-13.70 216.87-10.88Q214.60-8.06 212.04-5.46Q209.47-2.86 207.02-1.03Q204.57 0.81 203.03 0.88L203.03 0.88Q201.78 0.95 200.57 0.48Q199.37 0 198.38-0.84Q197.39-1.68 196.73-2.82Q196.07-3.96 196.00-5.20L196.00-5.20Q195.78-7.03 196.00-10.22Q196.22-13.40 196.80-16.74Q197.39-20.07 198.30-23.07Q199.22-26.07 200.39-27.54Z" class="letter-7"/></g>
<g><path d="M236.65-11.65L236.65-11.65Q235.91-8.86 234.67-6.45Q233.42-4.03 231.70-2.27Q229.98-0.51 227.82 0.48Q225.66 1.46 223.10 1.46L223.10 1.46Q220.09 1.46 218.37 0.18Q216.65-1.10 215.81-3.00Q214.97-4.91 214.78-7.18Q214.60-9.45 214.60-11.43L214.60-11.43Q214.60-12.82 214.93-14.50Q215.26-16.19 215.84-17.94Q216.43-19.70 217.35-21.46Q218.26-23.22 219.51-24.68L219.51-24.68Q219.95-25.93 220.86-26.88Q221.78-27.83 222.99-28.45Q224.19-29.08 225.59-29.41Q226.98-29.74 228.30-29.74L228.30-29.74Q228.52-29.74 228.70-29.66Q228.88-29.59 229.10-29.52L229.10-29.52Q230.05-29.44 231.48-28.78Q232.91-28.13 234.27-26.81Q235.62-25.49 236.57-23.47Q237.52-21.46 237.52-18.60L237.52-18.60Q237.52-18.02 237.45-17.18Q237.38-16.33 237.30-15.75L237.30-15.75Q238.99-16.41 240.82-17.36Q242.65-18.31 244.37-19.37Q246.09-20.43 247.56-21.53Q249.02-22.63 249.90-23.51L249.90-23.51Q250.63-24.17 251.15-24.24Q251.66-24.32 251.88-23.95Q252.10-23.58 251.95-22.92Q251.81-22.27 251.15-21.46L251.15-21.46Q250.78-21.02 249.28-19.70Q247.78-18.38 245.73-16.85Q243.68-15.31 241.26-13.84Q238.84-12.38 236.65-11.65ZM224.27-22.78L224.27-22.78Q224.05-22.12 224.05-21.39L224.05-21.39Q224.05-20.21 224.19-18.93Q224.34-17.65 224.93-16.63Q225.51-15.60 226.79-14.90Q228.08-14.21 230.35-14.21L230.35-14.21Q230.71-14.21 231.08-14.25Q231.45-14.28 231.81-14.36L231.81-14.36Q232.03-15.31 232.21-16.08Q232.40-16.85 232.40-17.43L232.40-17.43Q232.54-18.82 232.40-20.29Q232.25-21.75 231.85-22.96Q231.45-24.17 230.82-24.94Q230.20-25.71 229.32-25.71L229.32-25.71Q227.93-25.71 226.65-24.94Q225.37-24.17 224.27-22.78ZM219.58-9.89L219.58-9.89Q219.58-8.57 219.73-7.29Q219.87-6.01 220.31-5.02Q220.75-4.03 221.48-3.41Q222.22-2.78 223.39-2.78L223.39-2.78Q224.71-2.78 225.81-3.41Q226.90-4.03 227.78-5.02Q228.66-6.01 229.36-7.29Q230.05-8.57 230.57-9.96L230.57-9.96Q230.05-9.89 229.58-9.85Q229.10-9.81 228.52-9.81L228.52-9.81Q225.73-9.81 223.72-11.46Q221.70-13.11 220.61-15.67L220.61-15.67Q220.17-14.14 219.87-12.67Q219.58-11.21 219.58-9.89Z" class="letter-8"/></g>
</svg>