<svg xmlns="http://www.w3.org/2000/svg" width="350.7" height="154.3" viewBox="-26.8 -90.30000000000001 350.7 154.3">
<style>.letter-0 {
  fill: none; stroke: #000000; stroke-width: 2;
  stroke-linecap: round; stroke-linejoin: round;
  stroke-dasharray: 452.48; stroke-dashoffset: 452.48;
  animation: write0 1.8s ease-in-out forwards;
  animation-delay: 0.000s;
}
@keyframes write0 {
  to { stroke-dashoffset: 0; }
}
.letter-1 {
  fill: none; stroke: #000000; stroke-width: 2;
  stroke-linecap: round; stroke-linejoin: round;
  stroke-dasharray: 184.69; stroke-dashoffset: 184.69;
  animation: write1 1.8s ease-in-out forwards;
  animation-delay: 0.270s;
}
@keyframes write1 {
  to { stroke-dashoffset: 0; }
}
.letter-2 {
  fill: none; stroke: #000000; stroke-width: 2;
  stroke-linecap: round; stroke-linejoin: round;
  stroke-dasharray: 212.56; stroke-dashoffset: 212.56;
  animation: write2 1.8s ease-in-out forwards;
  animation-delay: 0.540s;
}
@keyframes write2 {
  to { stroke-dashoffset: 0; }
}
.letter-3 {
  fill: none; stroke: #000000; stroke-width: 2;
  stroke-linecap: round; stroke-linejoin: round;
  stroke-dasharray: 204.49; stroke-dashoffset: 204.49;
  animation: write3 1.8s ease-in-out forwards;
  animation-delay: 0.810s;
}
@keyframes write3 {
  to { stroke-dashoffset: 0; }
}
.letter-4 {
  fill: none; stroke: #000000; stroke-width: 2;
  stroke-linecap: round; stroke-linejoin: round;
  stroke-dasharray: 370.44; stroke-dashoffset: 370.44;
  animation: write4 1.8s ease-in-out forwards;
  animation-delay: 1.080s;
}
@keyframes write4 {
  to { stroke-dashoffset: 0; }
}
.letter-5 {
  fill: none; stroke: #000000; stroke-width: 2;
  stroke-linecap: round; stroke-linejoin: round;
  stroke-dasharray: 184.69; stroke-dashoffset: 184.69;
  animation: write5 1.8s ease-in-out forwards;
  animation-delay: 1.350s;
}
@keyframes write5 {
  to { stroke-dashoffset: 0; }
}
.letter-6 {
  fill: none; stroke: #000000; stroke-width: 2;
  stroke-linecap: round; stroke-linejoin: round;
  stroke-dasharray: 309.19; stroke-dashoffset: 309.19;
  animation: write6 1.8s ease-in-out forwards;
  animation-delay: 1.620s;
}
@keyframes write6 {
  to { stroke-dashoffset: 0; }
}
.letter-7 {
  fill: none; stroke: #000000; stroke-width: 2;
  stroke-linecap: round; stroke-linejoin: round;
  stroke-dasharray: 161.09; stroke-dashoffset: 161.09;
  animation: write7 1.8s ease-in-out forwards;
  animation-delay: 1.890s;
}
@keyframes write7 {
  to { stroke-dashoffset: 0; }
}
.letter-8 {
  fill: none; stroke: #000000; stroke-width: 2;
  stroke-linecap: round; stroke-linejoin: round;
  stroke-dasharray: 184.69; stroke-dashoffset: 184.69;
  animation: write8 1.8s ease-in-out forwards;
  animation-delay: 2.160s;
}
@keyframes write8 {
  to { stroke-dashoffset: 0; }
}
</style>
<g><path d="M16.90 2.70L16.90 2.70Q16.70 2.70 15.75 2.50Q14.80 2.30 13.95 2Q13.10 1.70 13 1.30L13 1.30Q12.80-0.60 14-4.10Q15.20-7.60 17.25-11.95Q19.30-16.30 21.50-20.50L21.50-20.50Q21.10-20.50 20.65-20.55Q20.20-20.60 19.70-20.60L19.70-20.60Q18.50-20.80 18.50-21.70L18.50-21.70Q18.50-22.20 19.60-22.20L19.60-22.20Q20.40-22.20 21-22.15Q21.60-22.10 22.30-22.10L22.30-22.10Q24.30-25.90 26-28.95Q27.70-32 28.40-33.60L28.40-33.60Q29-34.70 29.20-35.45Q29.40-36.20 29.40-36.60L29.40-36.60Q29.40-37.20 29.20-37.60L29.20-37.60Q29.40-38.80 30.65-40.80Q31.90-42.80 33.80-44.80Q35.70-46.80 37.90-48.15Q40.10-49.50 42-49.50L42-49.50Q42.60-49.50 43.85-49.15Q45.10-48.80 46.30-48.10Q47.50-47.40 47.80-46.10L47.80-46.10Q47.90-45.90 47.90-45.50L47.90-45.50Q47.90-45.20 47.60-45.20L47.60-45.20Q47.40-45.20 47.05-45.35Q46.70-45.50 46.50-45.50L46.50-45.50Q44.30-45.50 41.75-43.45Q39.20-41.40 36.50-38Q33.80-34.60 31.15-30.45Q28.50-26.30 26.10-22.10L26.10-22.10Q31.10-22.30 36.70-23.35Q42.30-24.40 47.80-26.20Q53.30-28 58-30.60Q62.70-33.20 65.90-36.50L65.90-36.50Q69.40-40.20 69.40-44.10L69.40-44.10Q69.40-47 67.20-49.50Q65-52 60.30-53.30L60.30-53.30Q57.50-54.10 53.95-54.50Q50.40-54.90 46.30-54.90L46.30-54.90Q39.90-54.90 33.15-53.80Q26.40-52.70 20.50-50.45Q14.60-48.20 10.60-44.80Q6.60-41.40 5.80-36.70L5.80-36.70Q5.50-34.30 6.70-32.90Q7.90-31.50 9.65-30.75Q11.40-30 12.40-29.40L12.40-29.40Q13.10-28.80 13.10-28.40L13.10-28.40Q13.10-27.70 11.80-27.90L11.80-27.90Q10.40-28.20 8.35-29.30Q6.30-30.40 4.75-32.35Q3.20-34.30 3.20-36.90L3.20-36.90Q3.20-37.30 3.25-37.70Q3.30-38.10 3.40-38.50L3.40-38.50Q3.40-38.60 3.35-39.15Q3.30-39.70 3.30-40.10L3.30-40.10Q3.90-43.20 6.35-45.95Q8.80-48.70 11.95-50.85Q15.10-53 17.80-54.30L17.80-54.30Q22.50-56.60 29.10-57.95Q35.70-59.30 42.90-59.30L42.90-59.30Q47.30-59.30 51.65-58.70Q56-58.10 60.10-56.80L60.10-56.80Q65.80-54.90 68.95-50.95Q72.10-47 71.80-42.70L71.80-42.70Q71.50-38.60 68.95-35.30Q66.40-32 62.45-29.55Q58.50-27.10 53.75-25.35Q49-23.60 44.20-22.50L44.20-22.50Q39.60-21.50 34.45-21Q29.30-20.50 25.20-20.40L25.20-20.40Q22.80-16.10 20.95-12.30Q19.10-8.50 18.20-6.20L18.20-6.20Q17.40-4 17.40-3.10L17.40-3.10Q17.40-1.70 18.50-1.70L18.50-1.70Q19.90-1.70 21.50-3.60L21.50-3.60Q22.60-4.90 23.55-6.05Q24.50-7.20 25.20-7L25.20-7Q25.30-6.90 25.30-6.70L25.30-6.70Q25.30-6.20 24.60-5.35Q23.90-4.50 23.80-4.40L23.80-4.40Q23.10-3.40 21.95-1.70Q20.80 0 19.55 1.35Q18.30 2.70 16.90 2.70Z" class="letter-0"/></g>
<g><path d="M65.60 1.10L65.60 1.10Q62.80 1.10 60.70-0.20L60.70-0.20Q57.20-2.30 57.20-7.80L57.20-7.80Q57.20-10.10 58.00-13.10L58.00-13.10Q58.70-15.60 60.50-18.55Q62.30-21.50 64.75-24.20Q67.20-26.90 70.10-28.60Q73-30.30 75.90-30.30L75.90-30.30Q77.10-30.30 78-30L78-30Q79.20-29.60 80.05-28.55Q80.90-27.50 80.90-25.90L80.90-25.90Q80.90-24.20 80.05-24Q79.20-23.80 79.20-24.40L79.20-24.40Q79.20-24.60 79.25-24.80Q79.30-25 79.30-25.10L79.30-25.10Q79.30-25.90 78.85-26.55Q78.40-27.20 77.20-27.20L77.20-27.20Q75.60-27.20 73.25-25.50Q70.90-23.80 68.45-20.95Q66-18.10 64.15-14.70Q62.30-11.30 61.70-7.90L61.70-7.90Q61.60-7.40 61.55-6.95Q61.50-6.50 61.50-6L61.50-6Q61.50-3.70 62.55-2.15Q63.60-0.60 65.90-0.60L65.90-0.60Q68.70-0.60 71.30-2.75Q73.90-4.90 75.95-7.90Q78-10.90 79-13.20L79-13.20Q79.80-15 80.10-16.30Q80.40-17.60 80.40-18.50L80.40-18.50Q80.40-19.30 80.25-19.90Q80.10-20.50 79.90-20.90L79.90-20.90Q79.70-21.50 79.70-21.80L79.70-21.80Q79.70-22.60 80.35-23.10Q81-23.60 81.70-23.60L81.70-23.60Q82.30-23.60 83-23.20L83-23.20Q83.80-23 85.20-22.90Q86.60-22.80 88.20-22.80L88.20-22.80Q89.90-22.80 91.65-22.90Q93.40-23 94.70-23.30L94.70-23.30Q94.90-23.40 95.30-23.40L95.30-23.40Q96-23.40 96-23L96-23Q96-22.60 95.30-22.30L95.30-22.30Q91.80-20.70 89.05-20.60Q86.30-20.50 84.30-20.50L84.30-20.50Q84.50-18 83.20-15.15Q81.90-12.30 80.50-10.10L80.50-10.10Q78.80-7.60 76.60-5Q74.40-2.40 71.70-0.65Q69 1.10 65.60 1.10Z" class="letter-1"/></g>
<g><path d="M105.70 1.20L105.70 1.20Q104 1.20 102.70 0.45Q101.40-0.30 100.90-2.40L100.90-2.40Q100.60-3.50 100.60-4.60L100.60-4.60Q100.60-7.60 102.15-10.45Q103.70-13.30 105.80-15.75Q107.90-18.20 109.40-19.90L109.40-19.90Q110.20-20.70 111.25-22Q112.30-23.30 112.30-24.60L112.30-24.60Q112.30-25.40 111.50-26.15Q110.70-26.90 108.60-27.20L108.60-27.20Q107.40-27.40 106.35-27.55Q105.30-27.70 104.20-27.70L104.20-27.70Q101.40-23.90 98.75-20.05Q96.10-16.20 93.10-12.50L93.10-12.50Q92.40-11.80 91.90-11.80L91.90-11.80Q91.30-11.80 91.30-12.40L91.30-12.40Q91.30-13 91.90-13.60L91.90-13.60Q97.30-20.20 101.20-27.70L101.20-27.70Q100.70-27.70 99.70-27.75Q98.70-27.80 98.10-27.90L98.10-27.90Q97.40-28.10 97-28.50Q96.60-28.90 96.60-29.30L96.60-29.30Q96.60-29.90 97.10-30L97.10-30Q98.40-30.40 99.90-31.20Q101.40-32 102.70-33.30L102.70-33.30Q104.10-34.70 105.30-36.25Q106.50-37.80 107.20-38.60L107.20-38.60Q107.90-39.10 108.70-39.10L108.70-39.10Q109.20-39.10 109.65-38.80Q110.10-38.50 110.10-37.90L110.10-37.90Q110.10-37.20 109.50-36.10L109.50-36.10Q108.60-34.70 107.55-33Q106.50-31.30 105.60-29.90L105.60-29.90Q107.40-29.80 109.20-29.70Q111-29.60 112.90-29.60L112.90-29.60Q113.90-29.60 114.85-29.65Q115.80-29.70 116.80-29.70L116.80-29.70Q119.80-29.70 119.80-28.20L119.80-28.20Q119.80-27.20 118.75-25.75Q117.70-24.30 116.20-22.60L116.20-22.60Q112.80-18.70 110.40-14.40Q108-10.10 107.20-7.80L107.20-7.80Q106.40-5.40 106.40-4.20L106.40-4.20Q106.40-1.80 108.30-1.80L108.30-1.80Q110-1.80 112.45-3.50Q114.90-5.20 117.50-7.65Q120.10-10.10 122.20-12.45Q124.30-14.80 125.20-16L125.20-16Q125.40-16.30 125.80-16.30L125.80-16.30Q126.20-16.30 126.50-15.95Q126.80-15.60 126.50-15.10L126.50-15.10Q125.40-13.40 123.30-10.85Q121.20-8.30 118.60-5.80Q116-3.30 113.50-1.50L113.50-1.50Q112.20-0.50 109.95 0.35Q107.70 1.20 105.70 1.20Z" class="letter-2"/></g>
<g><path d="M128.80 1L128.80 1Q127 1 125.55 0.20Q124.10-0.60 123.40-2.80L123.40-2.80Q123.30-3.10 123.25-3.40Q123.20-3.70 123.20-4.10L123.20-4.10Q123.20-6.10 124.10-9.10Q125-12.10 126.30-14.90L126.30-14.90Q125.70-14.10 124.90-12.95Q124.10-11.80 122.60-10L122.60-10Q122.20-9.60 121.70-9.60L121.70-9.60Q121-9.60 121-10.40L121-10.40Q121-11 121.40-11.40L121.40-11.40Q124-14.70 126.05-17.30Q128.10-19.90 129.10-21.70L129.10-21.70Q129.10-21.90 129.70-22.95Q130.30-24 131.30-25.90L131.30-25.90Q130.50-25.80 129.95-25.75Q129.40-25.70 129-25.70L129-25.70Q128.30-25.70 127.80-26.30Q127.30-26.90 127.70-27.80L127.70-27.80Q128.20-29.20 129.90-29.40Q131.60-29.60 132.90-29.70L132.90-29.70Q133-29.90 133.30-29.90L133.30-29.90Q134.50-32.10 135.60-34.20Q136.70-36.30 137.45-37.70Q138.20-39.10 138.20-39.20L138.20-39.20Q140.20-42.40 140.80-43.45Q141.40-44.50 142.40-44.70L142.40-44.70Q143.50-44.80 144.75-44.60Q146-44.40 146.40-43.70L146.40-43.70Q146.70-43.30 146.70-42.70L146.70-42.70Q146.70-41.80 146.30-40.95Q145.90-40.10 145.50-39.60L145.50-39.60Q145.10-38.90 144.45-38.65Q143.80-38.40 143.30-37.40L143.30-37.40Q142.30-35.50 141.10-33.30Q139.90-31.10 138.60-29.10L138.60-29.10L139.80-29.20Q142.20-29.40 144.35-29.70Q146.50-30 149.30-29.90L149.30-29.90Q149.80-29.90 150.35-29.75Q150.90-29.60 150.90-29.30L150.90-29.30Q150.90-28.90 148.30-28.20L148.30-28.20Q147.30-27.80 143.95-27.35Q140.60-26.90 137.10-26.50L137.10-26.50Q136.10-24.60 135.30-23.35Q134.50-22.10 134.20-21.50L134.20-21.50Q132-16.90 130.25-13.15Q128.50-9.40 128.30-7L128.30-7Q128.20-6.60 128.20-6.25Q128.20-5.90 128.20-5.50L128.20-5.50Q128.20-1.50 130.80-1.50L130.80-1.50Q132.40-1.50 134.90-3.25Q137.40-5 140-7.55Q142.60-10.10 144.75-12.45Q146.90-14.80 147.70-16L147.70-16Q148-16.30 148.30-16.30L148.30-16.30Q148.70-16.30 148.95-16Q149.20-15.70 149-15.20L149-15.20Q148.10-13.50 145.95-10.95Q143.80-8.40 141.15-5.85Q138.50-3.30 136-1.50L136-1.50Q134.70-0.50 132.75 0.25Q130.80 1 128.80 1Z" class="letter-3"/></g>
<g><path d="M135.40 34L135.40 34Q134.50 34 134.50 33.40L134.50 33.40Q134.50 32.90 134.70 32.50L134.70 32.50Q135.10 31.80 136.50 28.45Q137.90 25.10 139.95 19.95Q142 14.80 144.40 8.85Q146.80 2.90 149.10-2.95Q151.40-8.80 153.30-13.60L153.30-13.60Q151.50-13.30 150.10-13.20Q148.70-13.10 148.10-13.10L148.10-13.10Q147.20-13.10 146.30-13.70Q145.40-14.30 145.40-15.30L145.40-15.30Q145.40-16.20 146.60-16.85Q147.80-17.50 149.25-17.85Q150.70-18.20 151.40-18.20L151.40-18.20Q152.50-18.20 153.05-17.40Q153.60-16.60 154.30-16.60L154.30-16.60L154.50-16.60Q155.60-19.40 156.35-21.25Q157.10-23.10 157.30-23.90L157.30-23.90Q158.10-26 159.50-29.30Q160.90-32.60 162.60-36.35Q164.30-40.10 166.15-43.65Q168-47.20 169.60-49.80L169.60-49.80Q171.10-52.10 173.15-54.45Q175.20-56.80 177.65-58.35Q180.10-59.90 182.90-59.90L182.90-59.90Q184.10-59.90 185.20-59.65Q186.30-59.40 187.30-58.90L187.30-58.90Q190.30-57.20 190.30-54L190.30-54Q190.30-52.70 189.85-51.15Q189.40-49.60 188.60-47.90L188.60-47.90Q187.30-45 184.35-41Q181.40-37 177.55-32.70Q173.70-28.40 169.60-24.40Q165.50-20.40 161.70-17.40L161.70-17.40Q164.30-17.60 167-17.85Q169.70-18.10 172.40-18.10L172.40-18.10Q173.10-18.10 173.85-17.95Q174.60-17.80 174.60-17.50L174.60-17.50Q174.60-17.30 174.15-17.05Q173.70-16.80 172.40-16.40L172.40-16.40Q171.60-16.20 169.20-15.75Q166.80-15.30 163.65-14.90Q160.50-14.50 157.40-14.10L157.40-14.10Q156-10.50 154.15-5.55Q152.30-0.60 150.45 4.45Q148.60 9.50 147.10 13.50L147.10 13.50Q145.90 17 145.60 18.60Q145.30 20.20 145.30 21L145.30 21L145.30 21.70Q145.30 22.10 145.25 22.50Q145.20 22.90 144.90 23.60L144.90 23.60Q143.10 28.20 142.50 29.85Q141.90 31.50 140.80 32.20L140.80 32.20Q140 32.60 138.30 33.30Q136.60 34 135.40 34ZM158.80-17.20L158.80-17.20Q162.50-20 166.40-24Q170.30-28 174-32.55Q177.70-37.10 180.75-41.50Q183.80-45.90 185.80-49.30L185.80-49.30Q187.50-52.10 187.50-54.60L187.50-54.60Q187.50-57.30 185.60-57.30L185.60-57.30Q184-57.30 181.80-55.50L181.80-55.50Q179.90-54.10 177.25-50.85Q174.60-47.60 172.05-43.65Q169.50-39.70 167.60-36.20L167.60-36.20Q165.40-32 163.60-28.15Q161.80-24.30 160.70-21.75Q159.60-19.20 159.40-18.70L159.40-18.70Q159.10-18.10 158.80-17.20Z" class="letter-4"/></g>
<g><path d="M182.80 1.10L182.80 1.10Q180 1.10 177.90-0.20L177.90-0.20Q174.40-2.30 174.40-7.80L174.40-7.80Q174.40-10.10 175.20-13.10L175.20-13.10Q175.90-15.60 177.70-18.55Q179.50-21.50 181.95-24.20Q184.40-26.90 187.30-28.60Q190.20-30.30 193.10-30.30L193.10-30.30Q194.30-30.30 195.20-30L195.20-30Q196.40-29.60 197.25-28.55Q198.10-27.50 198.10-25.90L198.10-25.90Q198.10-24.20 197.25-24Q196.40-23.80 196.40-24.40L196.40-24.40Q196.40-24.60 196.45-24.80Q196.50-25 196.50-25.10L196.50-25.10Q196.50-25.90 196.05-26.55Q195.60-27.20 194.40-27.20L194.40-27.20Q192.80-27.20 190.45-25.50Q188.10-23.80 185.65-20.95Q183.20-18.10 181.35-14.70Q179.50-11.30 178.90-7.90L178.90-7.90Q178.80-7.40 178.75-6.95Q178.70-6.50 178.70-6L178.70-6Q178.70-3.70 179.75-2.15Q180.80-0.60 183.10-0.60L183.10-0.60Q185.90-0.60 188.50-2.75Q191.10-4.90 193.15-7.90Q195.20-10.90 196.20-13.20L196.20-13.20Q197-15 197.30-16.30Q197.60-17.60 197.60-18.50L197.60-18.50Q197.60-19.30 197.45-19.90Q197.30-20.50 197.10-20.90L197.10-20.90Q196.90-21.50 196.90-21.80L196.90-21.80Q196.90-22.60 197.55-23.10Q198.20-23.60 198.90-23.60L198.90-23.60Q199.50-23.60 200.20-23.20L200.20-23.20Q201-23 202.40-22.90Q203.80-22.80 205.40-22.80L205.40-22.80Q207.10-22.80 208.85-22.90Q210.60-23 211.90-23.30L211.90-23.30Q212.10-23.40 212.50-23.40L212.50-23.40Q213.20-23.40 213.20-23L213.20-23Q213.20-22.60 212.50-22.30L212.50-22.30Q209-20.70 206.25-20.60Q203.50-20.50 201.50-20.50L201.50-20.50Q201.70-18 200.40-15.15Q199.10-12.30 197.70-10.10L197.70-10.10Q196-7.60 193.80-5Q191.60-2.40 188.90-0.65Q186.20 1.10 182.80 1.10Z" class="letter-5"/></g>
<g><path d="M216.10 1L216.10 1Q211.90 1 210.25-1.10Q208.60-3.20 208.60-6.30L208.60-6.30Q208.60-9.20 209.95-13.60Q211.30-18 213.50-23.10Q215.70-28.20 218.25-33.25Q220.80-38.30 223.35-42.55Q225.90-46.80 227.80-49.40L227.80-49.40Q229.70-51.90 231.90-54.40Q234.10-56.90 236.80-58.60Q239.50-60.30 242.90-60.30L242.90-60.30Q245.20-60.30 246.85-59.05Q248.50-57.80 248.50-55.30L248.50-55.30Q248.50-54.30 248.15-53Q247.80-51.70 247-50.30L247-50.30Q240.90-39.70 232.45-30.70Q224-21.70 214.60-14L214.60-14Q214.20-12.50 213.85-11.30Q213.50-10.10 213.30-9.40L213.30-9.40Q213.20-8.90 213.20-8.35Q213.20-7.80 213.20-7.30L213.20-7.30Q213.20-4.90 214-3.10Q214.80-1.30 216.70-1.30L216.70-1.30Q218.50-1.30 221.15-3.05Q223.80-4.80 226.50-7.35Q229.20-9.90 231.40-12.30Q233.60-14.70 234.50-16L234.50-16Q234.80-16.30 235.10-16.30L235.10-16.30Q235.50-16.30 235.75-15.90Q236-15.50 235.70-14.90L235.70-14.90Q234.70-13.20 232.50-10.70Q230.30-8.20 227.60-5.65Q224.90-3.10 222.40-1.20L222.40-1.20Q219.30 1 216.10 1ZM216-18L216-18Q219.80-20.60 223.90-24.75Q228-28.90 231.95-33.80Q235.90-38.70 239.15-43.50Q242.40-48.30 244.40-52.20L244.40-52.20Q245-53.30 245.25-54.15Q245.50-55 245.50-55.70L245.50-55.70Q245.50-57.60 243.90-57.60L243.90-57.60Q242.50-57.60 240.40-56.10L240.40-56.10Q235-51.90 230.40-45.35Q225.80-38.80 222.20-31.60Q218.60-24.40 216-18Z" class="letter-6"/></g>
<g><path d="M248.90-34.80L248.90-34.80Q247.60-34.80 246.20-35.05Q244.80-35.30 244.80-36.90L244.80-36.90Q244.80-37.20 246.15-38.30Q247.50-39.40 248.95-40.55Q250.40-41.70 250.70-41.90L250.70-41.90Q252.40-43.30 252.80-43.30L252.80-43.30Q253.30-43.30 252.80-42Q252.30-40.70 252.30-39.70L252.30-39.70Q252.30-39.20 251.70-38Q251.10-36.80 250.30-35.80Q249.50-34.80 248.90-34.80ZM238 1L238 1Q236.20 1 234.75 0.20Q233.30-0.60 232.60-2.80L232.60-2.80Q232.50-3.10 232.45-3.40Q232.40-3.70 232.40-4.10L232.40-4.10Q232.40-6.10 233.30-9.10Q234.20-12.10 235.50-14.90L235.50-14.90Q234.90-14.10 234.10-12.95Q233.30-11.80 231.80-10L231.80-10Q231.40-9.60 230.90-9.60L230.90-9.60Q230.20-9.60 230.20-10.40L230.20-10.40Q230.20-11 230.60-11.40L230.60-11.40Q233.20-14.70 235.25-17.30Q237.30-19.90 238.30-21.70L238.30-21.70Q238.30-21.80 238.25-21.85Q238.20-21.90 238.20-22L238.20-22Q238.20-22.30 238.50-22.90L238.50-22.90Q239.30-25.30 240.15-26.95Q241-28.60 242-28.80L242-28.80Q242.20-28.80 242.40-28.85Q242.60-28.90 242.80-28.90L242.80-28.90Q243.90-28.90 244.80-28.40Q245.70-27.90 245.70-26.90L245.70-26.90Q245.70-26 245.05-24.70Q244.40-23.40 243.40-21.50L243.40-21.50Q241.20-16.90 239.45-13.15Q237.70-9.40 237.50-7L237.50-7Q237.40-6.60 237.40-6.25Q237.40-5.90 237.40-5.50L237.40-5.50Q237.40-1.50 240-1.50L240-1.50Q241.60-1.50 244.10-3.25Q246.60-5 249.20-7.55Q251.80-10.10 253.95-12.45Q256.10-14.80 256.90-16L256.90-16Q257.20-16.30 257.50-16.30L257.50-16.30Q257.90-16.30 258.15-16Q258.40-15.70 258.20-15.20L258.20-15.20Q257.30-13.50 255.15-10.95Q253-8.40 250.35-5.85Q247.70-3.30 245.20-1.50L245.20-1.50Q243.90-0.50 241.95 0.25Q240 1 238 1Z" class="letter-7"/></g>
<g><path d="M263.50 1.10L263.50 1.10Q260.70 1.10 258.60-0.20L258.60-0.20Q255.10-2.30 255.10-7.80L255.10-7.80Q255.10-10.10 255.90-13.10L255.90-13.10Q256.60-15.60 258.40-18.55Q260.20-21.50 262.65-24.20Q265.10-26.90 268-28.60Q270.90-30.30 273.80-30.30L273.80-30.30Q275-30.30 275.90-30L275.90-30Q277.10-29.60 277.95-28.55Q278.80-27.50 278.80-25.90L278.80-25.90Q278.80-24.20 277.95-24Q277.10-23.80 277.10-24.40L277.10-24.40Q277.10-24.60 277.15-24.80Q277.20-25 277.20-25.10L277.20-25.10Q277.20-25.90 276.75-26.55Q276.30-27.20 275.10-27.20L275.10-27.20Q273.50-27.20 271.15-25.50Q268.80-23.80 266.35-20.95Q263.90-18.10 262.05-14.70Q260.20-11.30 259.60-7.90L259.60-7.90Q259.50-7.40 259.45-6.95Q259.40-6.50 259.40-6L259.40-6Q259.40-3.70 260.45-2.15Q261.50-0.60 263.80-0.60L263.80-0.60Q266.60-0.60 269.20-2.75Q271.80-4.90 273.85-7.90Q275.90-10.90 276.90-13.20L276.90-13.20Q277.70-15 278-16.30Q278.30-17.60 278.30-18.50L278.30-18.50Q278.30-19.30 278.15-19.90Q278-20.50 277.80-20.90L277.80-20.90Q277.60-21.50 277.60-21.80L277.60-21.80Q277.60-22.60 278.25-23.10Q278.90-23.60 279.60-23.60L279.60-23.60Q280.20-23.60 280.90-23.20L280.90-23.20Q281.70-23 283.10-22.90Q284.50-22.80 286.10-22.80L286.10-22.80Q287.80-22.80 289.55-22.90Q291.30-23 292.60-23.30L292.60-23.30Q292.80-23.40 293.20-23.40L293.20-23.40Q293.90-23.40 293.90-23L293.90-23Q293.90-22.60 293.20-22.30L293.20-22.30Q289.70-20.70 286.95-20.60Q284.20-20.50 282.20-20.50L282.20-20.50Q282.40-18 281.10-15.15Q279.80-12.30 278.40-10.10L278.40-10.10Q276.70-7.60 274.50-5Q272.30-2.40 269.60-0.65Q266.90 1.10 263.50 1.10Z" class="letter-8"/></g>
</svg>