<svg width="465" height="216" viewBox="0 0 465 216" fill="none" xmlns="http://www.w3.org/2000/svg">
<g filter="url(#filter0_d_165_10)">
<path d="M45.112 90.888C42.072 90.888 39.384 90.488 37.048 89.688C34.744 88.888 32.664 87.768 30.808 86.328C28.952 84.888 27.512 83.448 26.488 82.008C25.496 80.536 25 79.8 25 79.8L32.344 73.464C32.344 73.464 32.808 74.04 33.736 75.192C34.664 76.312 35.672 77.32 36.76 78.216C37.848 79.08 39 79.752 40.216 80.232C41.464 80.712 42.92 80.952 44.584 80.952C48.232 80.952 51.08 79.784 53.128 77.448C55.208 75.112 56.248 71.672 56.248 67.128V21H66.616V68.088C66.616 75.16 64.632 80.728 60.664 84.792C56.728 88.856 51.544 90.888 45.112 90.888ZM101.879 90.888C94.4232 90.888 88.2152 88.36 83.2552 83.304C78.2952 78.248 75.8152 72.056 75.8152 64.728C75.8152 57.4 78.2952 51.224 83.2552 46.2C88.2472 41.144 94.4552 38.616 101.879 38.616C109.303 38.616 115.511 41.144 120.503 46.2C125.495 51.256 127.991 57.432 127.991 64.728C127.991 72.056 125.495 78.248 120.503 83.304C115.543 88.36 109.335 90.888 101.879 90.888ZM101.879 81.72C106.359 81.72 110.183 80.12 113.351 76.92C116.551 73.688 118.151 69.624 118.151 64.728C118.151 59.832 116.551 55.8 113.351 52.632C110.183 49.432 106.359 47.832 101.879 47.832C97.3992 47.832 93.5752 49.432 90.4072 52.632C87.2712 55.832 85.7032 59.864 85.7032 64.728C85.7032 69.624 87.2712 73.688 90.4072 76.92C93.5752 80.12 97.3992 81.72 101.879 81.72ZM159.356 90.888C151.996 90.888 145.836 88.424 140.876 83.496C135.948 78.568 133.484 72.312 133.484 64.728C133.484 57.176 135.932 50.936 140.828 46.008C145.756 41.08 151.804 38.616 158.972 38.616C166.268 38.616 172.156 40.872 176.636 45.384C181.148 49.864 183.404 55.528 183.404 62.376V67.032H138.716V60.12H173.66C173.468 56.408 172.044 53.336 169.388 50.904C166.732 48.44 163.276 47.208 159.02 47.208C154.54 47.208 150.764 48.84 147.692 52.104C144.62 55.368 143.084 59.592 143.084 64.776C143.084 70.056 144.716 74.328 147.98 77.592C151.276 80.824 155.196 82.44 159.74 82.44C162.012 82.44 163.996 82.12 165.692 81.48C167.42 80.84 168.972 79.928 170.348 78.744C171.724 77.528 173.18 75.72 174.716 73.32L182.3 77.256C180.444 80.712 178.444 83.384 176.3 85.272C174.156 87.128 171.724 88.536 169.004 89.496C166.316 90.424 163.1 90.888 159.356 90.888ZM191.41 89.736V21H201.442V89.736H191.41ZM249.728 71.0996L245.239 60.6451H247.271L250.296 68.0598L253.308 60.6451H255.339L250.864 71.0996H249.728ZM244.742 71.0996V60.6451H246.83V71.0996H244.742ZM253.748 71.0996V60.6451H255.836V71.0996H253.748ZM237.654 71.0996V61.5541H239.742V71.0996H237.654ZM234.472 62.4348V60.6451H242.924V62.4348H234.472Z" fill="white"/>
</g>
<g filter="url(#filter1_d_165_10)">
<path d="M186.372 168.859C183.332 168.859 180.644 168.459 178.308 167.659C176.004 166.859 173.924 165.739 172.068 164.299C170.212 162.859 168.772 161.419 167.748 159.979C166.756 158.507 166.26 157.771 166.26 157.771L173.604 151.435C173.604 151.435 174.068 152.011 174.996 153.163C175.924 154.283 176.932 155.291 178.02 156.187C179.108 157.051 180.26 157.723 181.476 158.203C182.724 158.683 184.18 158.923 185.844 158.923C189.492 158.923 192.34 157.755 194.388 155.419C196.468 153.083 197.508 149.643 197.508 145.099V98.9709H207.876V146.059C207.876 153.131 205.892 158.699 201.924 162.763C197.988 166.827 192.804 168.859 186.372 168.859ZM243.139 168.859C235.683 168.859 229.475 166.331 224.515 161.275C219.555 156.219 217.075 150.027 217.075 142.699C217.075 135.371 219.555 129.195 224.515 124.171C229.507 119.115 235.715 116.587 243.139 116.587C250.563 116.587 256.771 119.115 261.763 124.171C266.755 129.227 269.251 135.403 269.251 142.699C269.251 150.027 266.755 156.219 261.763 161.275C256.803 166.331 250.595 168.859 243.139 168.859ZM243.139 159.691C247.619 159.691 251.443 158.091 254.611 154.891C257.811 151.659 259.411 147.595 259.411 142.699C259.411 137.803 257.811 133.771 254.611 130.603C251.443 127.403 247.619 125.803 243.139 125.803C238.659 125.803 234.835 127.403 231.667 130.603C228.531 133.803 226.963 137.835 226.963 142.699C226.963 147.595 228.531 151.659 231.667 154.891C234.835 158.091 238.659 159.691 243.139 159.691ZM295.048 168.859C291.592 168.859 288.616 168.459 286.12 167.659C283.656 166.827 281.496 165.627 279.64 164.059C277.784 162.459 276.328 160.763 275.272 158.971C274.248 157.147 273.736 156.235 273.736 156.235L281.368 152.059C281.368 152.059 281.784 152.747 282.616 154.123C283.48 155.499 284.488 156.699 285.64 157.723C286.792 158.715 288.136 159.499 289.672 160.075C291.24 160.619 293.128 160.891 295.336 160.891C298.184 160.891 300.504 160.315 302.296 159.163C304.12 157.979 305.032 156.347 305.032 154.267C305.032 152.219 304.264 150.667 302.728 149.611C301.192 148.555 298.152 147.483 293.608 146.395C286.984 144.795 282.344 142.779 279.688 140.347C277.064 137.915 275.752 134.795 275.752 130.987C275.752 126.667 277.544 123.195 281.128 120.571C284.744 117.915 289.32 116.587 294.856 116.587C297.64 116.587 300.072 116.907 302.152 117.547C304.232 118.155 306.104 119.099 307.768 120.379C309.432 121.627 310.792 123.035 311.848 124.603C312.904 126.139 313.432 126.907 313.432 126.907L306.232 131.323C306.232 131.323 305.848 130.811 305.08 129.787C304.344 128.731 303.448 127.803 302.392 127.003C301.368 126.203 300.2 125.611 298.888 125.227C297.608 124.843 296.168 124.651 294.568 124.651C291.752 124.651 289.528 125.227 287.896 126.379C286.264 127.499 285.448 128.875 285.448 130.507C285.448 132.427 286.264 133.915 287.896 134.971C289.56 136.027 292.728 137.099 297.4 138.187C303.672 139.659 308.136 141.563 310.792 143.899C313.448 146.235 314.776 149.483 314.776 153.643C314.776 158.379 312.952 162.107 309.304 164.827C305.656 167.515 300.904 168.859 295.048 168.859ZM322.732 167.707V98.9709H332.572V125.227H332.716C334.22 122.699 336.412 120.635 339.292 119.035C342.172 117.403 345.324 116.587 348.748 116.587C354.38 116.587 358.78 118.315 361.948 121.771C365.116 125.195 366.7 129.771 366.7 135.499V167.707H356.668V137.611C356.668 133.931 355.756 131.003 353.932 128.827C352.14 126.619 349.372 125.515 345.628 125.515C342.108 125.515 339.084 126.859 336.556 129.547C334.028 132.203 332.764 135.531 332.764 139.531V167.707H322.732ZM380.37 186.907C380.37 186.907 380.354 186.907 380.322 186.907C380.29 186.907 380.306 186.907 380.37 186.907L391.314 163.147V168.139L369.858 117.739H380.37L394.338 151.819L395.394 154.651H395.49L396.546 151.819L410.178 117.739H420.594L391.026 186.907C391.058 186.907 391.058 186.907 391.026 186.907H380.37Z" fill="white"/>
</g>
<defs>
<filter id="filter0_d_165_10" x="0" y="0" width="280.836" height="119.888" filterUnits="userSpaceOnUse" color-interpolation-filters="sRGB">
<feFlood flood-opacity="0" result="BackgroundImageFix"/>
<feColorMatrix in="SourceAlpha" type="matrix" values="0 0 0 0 0 0 0 0 0 0 0 0 0 0 0 0 0 0 127 0" result="hardAlpha"/>
<feOffset dy="4"/>
<feGaussianBlur stdDeviation="12.5"/>
<feColorMatrix type="matrix" values="0 0 0 0 0 0 0 0 0 0 0 0 0 0 0 0 0 0 0.1 0"/>
<feBlend mode="normal" in2="BackgroundImageFix" result="effect1_dropShadow_165_10"/>
<feBlend mode="normal" in="SourceGraphic" in2="effect1_dropShadow_165_10" result="shape"/>
</filter>
<filter id="filter1_d_165_10" x="141.26" y="77.9709" width="304.334" height="137.936" filterUnits="userSpaceOnUse" color-interpolation-filters="sRGB">
<feFlood flood-opacity="0" result="BackgroundImageFix"/>
<feColorMatrix in="SourceAlpha" type="matrix" values="0 0 0 0 0 0 0 0 0 0 0 0 0 0 0 0 0 0 127 0" result="hardAlpha"/>
<feOffset dy="4"/>
<feGaussianBlur stdDeviation="12.5"/>
<feColorMatrix type="matrix" values="0 0 0 0 0 0 0 0 0 0 0 0 0 0 0 0 0 0 0.1 0"/>
<feBlend mode="normal" in2="BackgroundImageFix" result="effect1_dropShadow_165_10"/>
<feBlend mode="normal" in="SourceGraphic" in2="effect1_dropShadow_165_10" result="shape"/>
</filter>
</defs>
</svg>
